<svg width="30" height="30" viewBox="0 0 30 30" fill="none" xmlns="http://www.w3.org/2000/svg">
<path d="M16.7614 15.3536L21.7929 20.385L20.385 21.7929L15.3536 16.7614L15 16.4079L14.6464 16.7614L9.615 21.7929L8.20711 20.385L13.2386 15.3536L13.5921 15L13.2386 14.6464L8.20711 9.615L9.615 8.20711L14.6464 13.2386L15 13.5921L15.3536 13.2386L20.385 8.20711L21.7929 9.615L16.7614 14.6464L16.4079 15L16.7614 15.3536ZM0.5 15C0.5 6.98114 6.98114 0.5 15 0.5C23.0189 0.5 29.5 6.98114 29.5 15C29.5 23.0189 23.0189 29.5 15 29.5C6.98114 29.5 0.5 23.0189 0.5 15ZM2.5 15C2.5 21.8911 8.10886 27.5 15 27.5C21.8911 27.5 27.5 21.8911 27.5 15C27.5 8.10886 21.8911 2.5 15 2.5C8.10886 2.5 2.5 8.10886 2.5 15Z" fill="#F06540" stroke="#F06540"/>
</svg>
